<svg xmlns="http://www.w3.org/2000/svg" width="98" height="43" viewBox="0 0 98 43">
  <g fill="none" fill-rule="evenodd">
    <path fill="#000000" fill-rule="nonzero" d="M45.1,18.4 C45.1,15.8 43,13.7 40.4,13.7 C37.8,13.7 35.7,15.8 35.7,18.4 C35.7,21 37.8,23.1 40.4,23.1 C43,23.1 45.1,21 45.1,18.4 M45.1,32.2 C45.1,29.6 43,27.5 40.4,27.5 C37.8,27.5 35.7,29.6 35.7,32.2 C35.7,34.8 37.8,36.9 40.4,36.9 C43,36.8 45.1,34.7 45.1,32.2 M45.1,4.7 C45.1,2.1 43,0 40.4,0 C37.8,0 35.7,2.1 35.7,4.7 C35.7,7.3 37.8,9.4 40.4,9.4 C43,9.3 45.1,7.3 45.1,4.7"/>
    <polygon fill="#E41F13" fill-rule="nonzero" points="4.8 36.3 .7 36.3 0 24 0 0 5.5 0 5.5 24"/>
    <path fill="#000000" fill-rule="nonzero" d="M27.9,36.3 L23.8,36.3 L23.1,24 L23.1,0 L28.6,0 L28.6,24 L27.9,36.3 Z M97.2,36.3 L93.1,36.3 L92.4,22.9 L92.4,0 L97.9,0 L97.9,22.9 L97.2,36.3 Z M58.3,36.3 L52.8,36.3 L67.6,0 L73.1,0 L58.3,36.3 Z"/>
    <path fill="#000000" d="M87.8,42.2 C83.1,42.9 78.1,39.3 77.6,34.8 C77.1,30.3 80.5,26.8 84.7,27.5 C88.1,28.1 89.5,31.9 87.8,34.6 C85.9,37.3 82.4,36.8 80.6,36.2 C79.8,35.9 79.3,36.1 79.7,36.9 C80.5,38.8 83.5,41.9 87.8,41.6 L87.8,42.2 L87.8,42.2 Z"/>
    <path fill="#E41F13" fill-rule="nonzero" d="M18.7,18.4 C18.7,15.8 16.6,13.7 14,13.7 C11.4,13.7 9.3,15.8 9.3,18.4 C9.3,21 11.4,23.1 14,23.1 C16.6,23.1 18.7,21 18.7,18.4"/>
  </g>
</svg>
